<svg width="16" height="16" viewBox="0 0 16 16" fill="none" xmlns="http://www.w3.org/2000/svg">
<g clip-path="url(#clip0_480_782)">
<path d="M10.6666 5.33344C10.5416 5.20845 10.372 5.13824 10.1953 5.13824C10.0185 5.13824 9.84894 5.20845 9.72392 5.33344L7.99992 7.05744L6.27592 5.33344C6.15019 5.212 5.98179 5.1448 5.80699 5.14632C5.63219 5.14784 5.46499 5.21795 5.34138 5.34156C5.21777 5.46516 5.14766 5.63237 5.14614 5.80717C5.14462 5.98197 5.21182 6.15037 5.33326 6.2761L7.05726 8.0001L5.33326 9.7241C5.21182 9.84984 5.14462 10.0182 5.14614 10.193C5.14766 10.3678 5.21777 10.535 5.34138 10.6586C5.46499 10.7823 5.63219 10.8524 5.80699 10.8539C5.98179 10.8554 6.15019 10.7882 6.27592 10.6668L7.99992 8.94277L9.72392 10.6668C9.84965 10.7882 10.0181 10.8554 10.1929 10.8539C10.3676 10.8524 10.5349 10.7823 10.6585 10.6586C10.7821 10.535 10.8522 10.3678 10.8537 10.193C10.8552 10.0182 10.788 9.84984 10.6666 9.7241L8.94259 8.0001L10.6666 6.2761C10.7916 6.15108 10.8618 5.98154 10.8618 5.80477C10.8618 5.62799 10.7916 5.45845 10.6666 5.33344Z" fill="#D3D3D3"/>
<path d="M8 0C6.41775 0 4.87104 0.469192 3.55544 1.34824C2.23985 2.22729 1.21447 3.47672 0.608967 4.93853C0.00346629 6.40034 -0.15496 8.00887 0.153721 9.56072C0.462403 11.1126 1.22433 12.538 2.34315 13.6569C3.46197 14.7757 4.88743 15.5376 6.43928 15.8463C7.99113 16.155 9.59966 15.9965 11.0615 15.391C12.5233 14.7855 13.7727 13.7602 14.6518 12.4446C15.5308 11.129 16 9.58225 16 8C15.9977 5.87897 15.1541 3.84547 13.6543 2.34568C12.1545 0.845886 10.121 0.00229405 8 0V0ZM8 14.6667C6.68146 14.6667 5.39253 14.2757 4.2962 13.5431C3.19987 12.8106 2.34539 11.7694 1.84081 10.5512C1.33622 9.33305 1.2042 7.99261 1.46144 6.6994C1.71867 5.40619 2.35361 4.21831 3.28596 3.28596C4.21831 2.35361 5.4062 1.71867 6.6994 1.46143C7.99261 1.2042 9.33305 1.33622 10.5512 1.8408C11.7694 2.34539 12.8106 3.19987 13.5431 4.2962C14.2757 5.39253 14.6667 6.68146 14.6667 8C14.6647 9.76752 13.9617 11.4621 12.7119 12.7119C11.4621 13.9617 9.76752 14.6647 8 14.6667Z" fill="#D3D3D3"/>
</g>
<defs>
<clipPath id="clip0_480_782">
<rect width="16" height="16" fill="white"/>
</clipPath>
</defs>
</svg>
